<?xml version="1.0" encoding="utf-8"?>
<!-- Generator: Adobe Illustrator 16.0.4, SVG Export Plug-In . SVG Version: 6.00 Build 0)  -->
<!DOCTYPE svg PUBLIC "-//W3C//DTD SVG 1.1//EN" "http://www.w3.org/Graphics/SVG/1.1/DTD/svg11.dtd">
<svg version="1.1" id="Layer_1" xmlns="http://www.w3.org/2000/svg" xmlns:xlink="http://www.w3.org/1999/xlink" x="0px" y="0px"
	 width="469.604px" height="178.396px" viewBox="0 0 469.604 178.396" enable-background="new 0 0 469.604 178.396"
	 xml:space="preserve">
<g id="VbgPcZ_1_">
	<g>
		<path fill="#FFFFFF" d="M461.256,71.515c-0.611,2.997-0.975,6.071-1.875,8.979c-6.558,21.183-20.451,34.576-42.394,38.895
			c-26.295,5.178-55.555-10.748-62.182-41.451c-3.057-14.163-0.545-27.553,6.92-40.005c0.885-1.474,1.903-2.322,3.717-2.378
			c6.079-0.187,12.154-0.497,18.48-0.77c0.637,4.882,1.254,9.611,1.872,14.34c0.146,1.114,0.182,2.258,0.465,3.337
			c0.865,3.288-1.279,5.894-1.972,8.811c-3.608,15.217,8.771,29.96,24.409,28.887c12.695-0.873,21.765-9.729,22.536-22.634
			c0.681-11.41-7.139-21.622-18.544-24.21c-6.662-1.512-12.814-0.219-18.517,3.449c-0.622,0.4-1.222,0.835-2.142,1.468
			c-0.425-3.518-0.834-6.762-1.203-10.011c-0.363-3.2-0.686-6.405-1.052-9.867c-6.92,0.337-13.729,0.667-20.817,1.013
			c0.368-0.52,0.578-0.948,0.902-1.255c12.168-11.5,26.602-16.837,43.264-14.92c24.025,2.764,41.718,18.974,46.992,42.464
			c0.472,2.103,0.763,4.248,1.138,6.373C461.256,65.19,461.256,68.353,461.256,71.515z"/>
		<path fill="#FFFFFF" d="M9.485,38.988c5.787,0.066,11.574,0.146,17.362,0.193c3.448,0.028,6.896,0.005,10.552,0.005
			c0,3.438,0,6.633,0,10.306c0.75-0.696,1.202-1.025,1.543-1.444c12.735-15.601,35.526-12.716,47.145,0.196
			c6.829,7.589,9.982,16.652,10.575,26.696c0.549,9.302-0.676,18.297-5.034,26.683c-8.283,15.938-26.488,23.057-42.227,16.421
			c-2.19-0.923-4.274-2.208-6.203-3.606c-1.933-1.401-3.611-3.153-5.607-4.937c0,10.817,0,21.513,0,32.489
			c-9.536,0-18.821,0-28.107,0C9.485,107.657,9.485,73.322,9.485,38.988z M36.85,79.764c0.142,0.998,0.251,2.888,0.695,4.697
			c1.827,7.445,8.01,12.484,15.335,12.626c7.229,0.14,13.753-4.774,15.594-12.235c0.704-2.854,0.812-5.968,0.595-8.92
			c-0.853-11.629-13.227-18.728-23.244-13.338C39.424,66.038,36.964,71.868,36.85,79.764z"/>
		<path fill="#FFFFFF" d="M346.958,11.43c0,6.76,0,13.519,0,20.417c-9.828,0-19.417,0-29.365,0c0-6.911,0-13.664,0-20.417
			C327.381,11.43,337.169,11.43,346.958,11.43z"/>
		<path fill="#FFFFFF" d="M360.06,170.001c-2.238-0.806-4.51-1.535-6.702-2.452c-0.942-0.394-1.722-1.178-2.757-1.915
			c1.154-1.405,2.238-2.727,2.924-3.562c3.194,0.902,6.044,1.863,8.966,2.471c1.519,0.314,3.106-0.241,3.468-2.087
			c0.389-1.989-1.182-2.565-2.627-3.056c-2.341-0.791-4.738-1.42-7.062-2.26c-3.013-1.09-4.555-3.36-4.604-6.541
			c-0.051-3.274,1.304-5.808,4.291-7.344c4.403-2.266,10.98-1.281,15.112,2.387c-0.937,1.371-1.89,2.766-2.614,3.828
			c-2.715-0.75-5.095-1.568-7.542-2.024c-1.446-0.271-2.943,0.211-3.228,2.034c-0.268,1.722,0.994,2.402,2.325,2.844
			c2.133,0.708,4.342,1.199,6.444,1.982c4.2,1.566,5.768,3.955,5.465,7.982c-0.286,3.8-2.51,6.251-6.564,7.26
			c-0.422,0.104-0.82,0.299-1.229,0.453C362.77,170.001,361.415,170.001,360.06,170.001z"/>
		<path fill="#FFFFFF" d="M440.475,170.001c-2.548-1.065-5.091-2.081-6.694-4.587c-2.425-3.787-2.365-9.02,0.271-12.744
			c2.479-3.5,6.486-4.934,10.937-3.912c4.996,1.147,7.956,6.188,7.081,12.41c-4.567,0-9.186,0-13.832,0
			c0.583,4.443,4.764,5.266,9.875,2.128c1.029,0.912,2.087,1.849,3.681,3.259c-2.498,1.266-4.648,2.355-6.8,3.445
			C443.487,170.001,441.98,170.001,440.475,170.001z M446.341,157.372c-0.241-2.798-1.574-4.14-4.021-4.155
			c-2.509-0.017-3.903,1.346-4.197,4.155C440.864,157.372,443.598,157.372,446.341,157.372z"/>
		<path fill="#FFFFFF" d="M402.074,170.001c-2.509-0.91-4.899-1.89-5.514-4.971c-0.731-3.673,0.901-6.907,4.549-7.556
			c2.723-0.484,5.602-0.097,8.433-0.097c0.8-3.297-2.918-4.827-9.934-2.793c-0.45-1.373-0.903-2.755-1.416-4.321
			c4.226-1.824,8.392-2.258,12.615-0.871c2.378,0.781,4.104,2.686,4.241,5.118c0.277,4.919,0.083,9.866,0.083,14.916
			c-1.584,0-3.291,0-5.163,0c-0.107-0.459-0.232-0.993-0.362-1.547c-1.474,0.716-2.921,1.418-4.369,2.121
			C404.183,170.001,403.128,170.001,402.074,170.001z M406.643,160.479c-3.026-0.041-4.502,0.866-4.568,2.695
			c-0.059,1.586,1.193,2.666,3.156,2.721c2.537,0.07,4.637-1.515,4.557-3.576C409.697,159.986,407.74,160.783,406.643,160.479z"/>
		<path fill="#FFFFFF" d="M288.68,170.001c-4.595-1.55-7.415-4.526-7.951-9.522c-0.794-7.41,6.089-13.238,12.845-10.797
			c4,1.445,6.239,5.467,5.858,10.793c-5.124,0-10.272,0-15.607,0c0.208,3.027,1.513,5.045,3.971,6.262
			c2.784,1.378,5.951,0.672,9.255-2.01c0.521,0.418,1.069,0.861,2.193,1.767c-2.224,1.291-4.135,2.399-6.046,3.508
			C291.692,170.001,290.186,170.001,288.68,170.001z M296.362,158.279c-0.175-3.935-2.566-6.561-5.867-6.685
			c-3.406-0.128-6.145,2.613-6.57,6.685C288.031,158.279,292.125,158.279,296.362,158.279z"/>
		<path fill="#FFFFFF" d="M329.791,170.001c-2.203-0.851-4.405-1.7-6.89-2.658c0.729-1.062,1.178-1.711,1.265-1.838
			c2.898,0.667,5.376,1.417,7.908,1.757c1.705,0.229,3.125-0.771,3.492-2.546c0.386-1.864-1.027-2.705-2.474-3.264
			c-1.812-0.701-3.714-1.177-5.524-1.884c-2.104-0.821-3.569-2.264-3.57-4.696c0-2.373,1.556-4.341,3.98-5.196
			c2.938-1.037,6.758-0.357,9.914,1.827c-0.357,0.61-0.723,1.229-1.001,1.705c-2.184-0.509-4.187-1.257-6.217-1.34
			c-1.136-0.048-2.698,0.722-3.385,1.636c-0.91,1.211-0.291,2.651,1.213,3.293c1.58,0.676,3.221,1.209,4.842,1.787
			c3.768,1.342,5.076,2.75,5.052,5.461c-0.024,2.855-1.429,4.404-5.116,5.665c-0.126,0.043-0.218,0.192-0.326,0.292
			C331.899,170.001,330.845,170.001,329.791,170.001z"/>
		<path fill="#FFFFFF" d="M308.558,170.001c-3.409-1.142-4.327-3.664-4.167-7.019c0.167-3.508,0.038-7.03,0.038-10.58
			c-0.979-0.146-1.709-0.254-2.655-0.396c-0.049-0.701-0.097-1.4-0.152-2.217c0.95-0.12,1.741-0.221,2.729-0.346
			c0-1.922,0-3.775,0-5.875c0.977-0.049,1.756-0.088,2.848-0.143c0,2.035,0,3.94,0,6.133c2.271,0,4.256,0,6.332,0
			c0,0.939,0,1.588,0,2.57c-2.023,0-3.998,0-6.128,0c0,4.366-0.115,8.407,0.048,12.436c0.083,2.043,1.721,2.67,3.553,2.627
			c0.738-0.017,1.47-0.262,2.247-0.414c1.178,2.246-0.581,2.623-1.979,3.222C310.365,170.001,309.461,170.001,308.558,170.001z"/>
		<path fill="#FFFFFF" d="M151.312,73.535c0.647-7.884-3.753-12.956-11.532-13.791c-8.249-0.886-16.154,0.546-23.888,3.295
			c-0.626,0.223-1.245,0.468-2.137,0.804c-1.909-6.532-3.791-12.972-5.832-19.954c4.97-1.418,9.769-3.137,14.714-4.126
			c11.075-2.216,22.237-2.721,33.309,0.099c14.126,3.598,22.486,13.547,22.837,28.149c0.399,16.547,0.14,33.11,0.161,49.666
			c0,0.212-0.09,0.425-0.172,0.791c-9.053,0-18.106,0-27.403,0c0-2.5,0-4.933,0-7.713c-1.606,1.367-2.862,2.509-4.194,3.556
			c-10.324,8.119-27.648,8.263-37.67,0.178c-6.972-5.625-9.109-13.334-8.06-21.829c1.474-11.932,9.021-19.01,21.463-21.178
			c8.997-1.568,17.803-0.789,26.544,1.553C150.025,73.187,150.598,73.342,151.312,73.535z M140.879,83.719
			c-2.482,0.701-5.408,1.15-7.988,2.347c-3.741,1.736-5.194,5.37-4.593,9.859c0.422,3.152,2.995,6.06,6.516,6.595
			c2.387,0.363,4.984,0.377,7.324-0.164c6.712-1.549,9.761-6.364,9.704-14.4c-0.01-1.334-0.347-2.115-1.686-2.378
			C147.23,85.002,144.308,84.407,140.879,83.719z"/>
		<path fill="#FFFFFF" d="M307.206,94.018c0,7.039,0.026,13.81-0.048,20.58c-0.006,0.571-0.553,1.426-1.069,1.66
			c-10.591,4.819-21.465,5.686-32.379,1.426c-7.629-2.978-11.265-9.354-12.051-17.154c-0.609-6.043-0.462-12.167-0.531-18.255
			c-0.077-6.768-0.019-13.537-0.019-20.593c-3.159,0-6.196,0-9.344,0c0-7.562,0-14.837,0-22.431c3.022,0,6.057,0,9.297,0
			c0-6.83,0-13.345,0-19.999c9.363,0,18.513,0,27.965,0c0,6.555,0,13.128,0,19.94c6.285,0,12.274,0,18.41,0
			c0,7.507,0,14.77,0,22.333c-6.005,0-12.046,0-18.185,0c-0.088,0.633-0.18,0.987-0.18,1.341c-0.001,8.733-0.043,17.467,0.032,26.2
			c0.046,5.186,2.318,7.373,7.529,7.328c1.789-0.015,3.605-0.235,5.353-0.623C303.649,95.402,305.235,94.695,307.206,94.018z"/>
		<path fill="#FFFFFF" d="M244.396,37.964c0,9.811,0,19.356,0,29.138c-2.424,0.165-4.83,0.116-7.156,0.521
			c-9.94,1.731-16.14,8.064-17.124,18.443c-0.728,7.69-0.505,15.472-0.665,23.213c-0.062,2.996-0.01,5.994-0.01,9.166
			c-9.342,0-18.478,0-27.772,0c0-26.299,0-52.608,0-79.089c9.132,0,18.268,0,27.716,0c0,4.863,0,9.684,0,14.504
			C224.622,43.59,232.152,37.37,244.396,37.964z"/>
		<path fill="#FFFFFF" d="M346.101,118.509c-9.2,0-18.278,0-27.522,0c0-26.357,0-52.643,0-79.132c9.104,0,18.223,0,27.522,0
			C346.101,65.655,346.101,91.939,346.101,118.509z"/>
		<path fill="#FFFFFF" d="M375.165,141.439c1.861,0,3.697,0,5.675,0c0,3.283,0,6.426,0,10.041c0.837-0.717,1.334-1.211,1.896-1.612
			c2.331-1.669,4.836-1.933,7.458-0.786c2.482,1.086,3.628,3.198,3.7,5.734c0.14,4.801,0.04,9.607,0.04,14.568
			c-1.907,0-3.735,0-5.84,0c0-4.014,0.158-7.986-0.096-11.934c-0.076-1.18-1.057-2.768-2.073-3.285
			c-0.932-0.477-2.816-0.168-3.646,0.539c-0.864,0.736-1.266,2.347-1.347,3.607c-0.188,2.922-0.061,5.863-0.062,8.797
			c0,0.731,0,1.465,0,2.312c-1.988,0-3.764,0-5.707,0C375.165,160.146,375.165,150.871,375.165,141.439z"/>
		<path fill="#FFFFFF" d="M424.846,169.43c-2.059,0-3.833,0-5.752,0c0-6.861,0-13.658,0-20.552c1.926,0,3.707,0,5.601,0
			c0.077,1.019,0.149,1.966,0.259,3.392c1.658-2.336,3.416-3.949,6.312-3.849c0,2,0,3.968,0,5.947
			c-4.873,1.007-6.157,2.466-6.398,7.584C424.751,164.405,424.846,166.867,424.846,169.43z"/>
		<path fill="#FFFFFF" d="M278.636,166.732c0,1.117,0,1.848,0,2.692c-6.015,0-11.937,0-18.043,0c0-8.918,0-17.827,0-26.854
			c0.851,0,1.655,0,2.777,0c0,7.94,0,15.937,0,24.162C268.611,166.732,273.543,166.732,278.636,166.732z"/>
		<path fill="#FFFFFF" d="M454.681,163.381c2.068,0,3.925,0,5.959,0c0,1.958,0,3.871,0,5.973c-1.865,0-3.837,0-5.959,0
			C454.681,167.451,454.681,165.541,454.681,163.381z"/>
		<path fill="#FFFFFF" d="M316.523,150.496c0.496-0.491,1.035-0.946,1.478-1.48c0.699-0.848,1.882-1.525,0.038-2.709
			c-0.659-0.425-0.39-2.293-0.569-3.688c1.332,0,2.406,0,3.479,0C321.854,147.956,320.661,150.445,316.523,150.496z"/>
	</g>
</g>
</svg>
