<?xml version="1.0" encoding="utf-8"?>
<!-- Generator: Adobe Illustrator 16.0.4, SVG Export Plug-In . SVG Version: 6.00 Build 0)  -->
<!DOCTYPE svg PUBLIC "-//W3C//DTD SVG 1.1//EN" "http://www.w3.org/Graphics/SVG/1.1/DTD/svg11.dtd">
<svg version="1.1" id="Layer_1" xmlns="http://www.w3.org/2000/svg" xmlns:xlink="http://www.w3.org/1999/xlink" x="0px" y="0px"
	 width="123.786px" height="123.143px" viewBox="0 0 123.786 123.143" enable-background="new 0 0 123.786 123.143"
	 xml:space="preserve">
<path fill="#EF9821" d="M115.896,65.229c-0.611,2.996-0.975,6.07-1.875,8.979c-6.558,21.183-20.451,34.576-42.394,38.895
	c-26.295,5.178-55.555-10.748-62.182-41.451c-3.057-14.163-0.545-27.553,6.92-40.004c0.885-1.474,1.903-2.322,3.717-2.378
	c6.079-0.187,12.154-0.497,18.48-0.77c0.637,4.882,1.254,9.611,1.872,14.34c0.146,1.114,0.182,2.258,0.465,3.337
	c0.865,3.288-1.279,5.894-1.972,8.811c-3.608,15.217,8.771,29.959,24.409,28.887c12.695-0.873,21.765-9.729,22.536-22.634
	c0.681-11.41-7.139-21.622-18.544-24.21c-6.662-1.512-12.814-0.219-18.517,3.449c-0.622,0.4-1.222,0.835-2.142,1.468
	c-0.425-3.518-0.834-6.762-1.203-10.011c-0.363-3.2-0.686-6.405-1.052-9.867c-6.92,0.337-13.729,0.667-20.817,1.013
	c0.368-0.52,0.578-0.948,0.902-1.255C36.67,10.327,51.104,4.99,67.766,6.907c24.025,2.764,41.718,18.974,46.992,42.464
	c0.472,2.103,0.763,4.248,1.138,6.373C115.896,58.904,115.896,62.067,115.896,65.229z"/>
</svg>
